<svg width="170" height="58" viewBox="0 0 170 58" fill="none" xmlns="http://www.w3.org/2000/svg">
<g clip-path="url(#clip0_23709_294080)">
<path d="M11.2803 8.71809L5.12988 13.1595H164.812L158.062 8.61328C157.137 7.99011 156.047 7.65723 154.931 7.65723H14.5615C13.3835 7.65723 12.2354 8.02842 11.2803 8.71809Z" fill="#2A2C31"/>
<path d="M25.2147 1.41592C25.2113 1.35677 25.2743 1.29327 25.4373 1.22586H25.4356L26.615 0.747861H26.6159C26.6306 0.741772 26.6461 0.736118 26.6634 0.730029C26.6832 0.722635 26.7048 0.715676 26.7281 0.708282H26.7289C27.1888 0.564318 27.8635 0.533003 28.4511 0.539962C28.4925 0.540397 28.5339 0.541267 28.5744 0.542137C28.6469 0.543876 28.7168 0.545616 28.785 0.548226C28.7901 0.548226 28.7953 0.548226 28.8005 0.548661C28.8661 0.55127 28.9299 0.55388 28.9903 0.556924C29.0309 0.559099 29.0697 0.560839 29.1068 0.563013C29.1611 0.566058 29.2129 0.569103 29.2612 0.572582C29.2681 0.573017 29.2759 0.573452 29.2828 0.573887C29.5209 0.589979 29.6719 0.605637 29.6719 0.605637L34.4873 1.88566C34.5063 1.88783 34.5252 1.8887 34.5442 1.8887C34.5632 1.8887 34.5822 1.8874 34.6012 1.88522C34.6754 1.87653 34.7513 1.86826 34.8281 1.86043C34.8773 1.85521 34.9264 1.84999 34.9765 1.84521C35.7124 1.77301 36.5562 1.73169 37.4544 1.73169H37.4561C37.5355 1.73169 37.6132 1.73213 37.6917 1.73256C37.7141 1.73256 37.7366 1.73256 37.759 1.73343C37.8211 1.73387 37.8832 1.73474 37.9454 1.73604C37.9635 1.73604 37.9816 1.73648 37.9988 1.73691C38.0748 1.73822 38.1507 1.73996 38.2258 1.74213C38.2447 1.74256 38.2637 1.74343 38.2827 1.74387C38.3414 1.74561 38.4 1.74735 38.4578 1.74952C38.4803 1.75039 38.5036 1.75126 38.526 1.75213C38.5993 1.75474 38.6718 1.75779 38.7443 1.76127C38.7529 1.76127 38.7615 1.76214 38.7702 1.76257C38.8349 1.76562 38.8979 1.76866 38.9617 1.77214C38.9859 1.77345 39.01 1.77475 39.0342 1.77605C39.086 1.7791 39.1377 1.78214 39.1895 1.78562C39.2102 1.78693 39.2309 1.78823 39.2508 1.78954C39.3172 1.79389 39.3828 1.79867 39.4475 1.80346C39.4716 1.8052 39.4958 1.80737 39.5191 1.80911C39.5631 1.81259 39.608 1.81607 39.6511 1.81998C39.6778 1.82216 39.7037 1.82433 39.7305 1.82694C39.7822 1.83173 39.834 1.83608 39.8858 1.8413C39.916 1.84434 39.947 1.84738 39.9772 1.85043C40.0186 1.85434 40.0592 1.85869 40.0997 1.86304C40.1282 1.86609 40.1576 1.86913 40.186 1.87261C40.2205 1.87653 40.2542 1.88044 40.2878 1.88435C40.3154 1.8874 40.3431 1.89088 40.3707 1.89392C40.4224 1.90045 40.4733 1.90697 40.5234 1.91349C40.5536 1.91741 40.5829 1.92176 40.6123 1.92567C40.639 1.92959 40.6657 1.93307 40.6925 1.93698C40.7227 1.94133 40.7537 1.94568 40.7831 1.95046C40.8081 1.95438 40.8323 1.95786 40.8564 1.96177C40.909 1.97004 40.96 1.9783 41.0109 1.987C41.0307 1.99048 41.0514 1.99396 41.0713 1.99744C41.1023 2.00266 41.1325 2.00831 41.1627 2.01396C41.18 2.01701 41.1972 2.02049 41.2145 2.02397C41.2792 2.03615 41.3422 2.04876 41.4026 2.06181C41.4077 2.06268 41.4129 2.06398 41.4181 2.06485C41.4483 2.07138 41.4776 2.0779 41.507 2.08442C41.5208 2.08747 41.5337 2.09051 41.5475 2.09356C41.5769 2.10052 41.6062 2.10704 41.6347 2.114C41.6381 2.11487 41.6424 2.11574 41.6459 2.11704C41.7045 2.13183 41.7615 2.14662 41.8158 2.16184C41.8253 2.16445 41.834 2.16706 41.8434 2.16967C41.8693 2.17707 41.8952 2.18489 41.9202 2.19229C41.9289 2.1949 41.9375 2.19751 41.9453 2.20012C41.9979 2.21664 42.0488 2.23361 42.0963 2.25057H42.0971L43.0108 2.56764C43.0945 2.59417 43.1722 2.62113 43.2446 2.64854L43.2559 2.65245C43.6303 2.79859 43.8408 2.96038 43.8408 3.13175C43.8408 3.13958 43.8382 3.14741 43.8374 3.15524H43.8408V9.48387C43.8408 10.1154 40.9893 10.6277 37.4717 10.6277C34.181 10.6277 31.4727 10.1798 31.137 9.60435C31.0861 9.51736 30.886 9.29268 30.4156 9.17215C28.8 8.75823 27.3952 8.47722 26.4633 8.29091C25.5315 8.1046 25.2087 8.01465 25.2139 7.76326V1.41592H25.2147Z" fill="#333439"/>
<path d="M26.4742 0.39706L26.6238 0.329273C26.6574 0.316225 26.6937 0.302742 26.7377 0.289259C27.7195 -0.0178055 29.6824 0.187049 29.6824 0.187049L34.489 1.46707C34.5261 1.47142 34.5649 1.47099 34.602 1.46707C35.42 1.37008 36.4001 1.3131 37.4544 1.3131C39.4906 1.3131 41.2516 1.52405 42.0971 1.83111C42.753 2.05873 43.8408 2.74032 43.8408 3.13057C43.8408 3.76209 40.9893 4.27445 37.4717 4.27445C34.181 4.27445 31.4727 3.82646 31.137 3.25104C31.0861 3.16406 30.8497 2.93203 30.4657 2.89115C29.2464 2.44912 26.7148 1.95432 26.4348 1.90788C26.1549 1.86145 24.6241 1.65152 25.4316 1.17286L26.4742 0.39706Z" fill="#2F2F35"/>
<path d="M26.7456 0.270704C27.7274 -0.0363601 29.6202 0.168494 29.6202 0.168494L34.4909 1.44852C34.528 1.45287 34.5668 1.45243 34.6039 1.44852C35.4218 1.35153 36.4019 1.29455 37.4563 1.29455C40.3164 1.29455 42.6348 1.71079 42.6348 2.22444C42.6348 2.7381 40.3164 3.15434 37.4563 3.15434C34.5961 3.15434 32.2778 2.7381 32.2778 2.22444V2.22357C32.2502 2.10919 31.9215 2.03383 31.6838 1.96362L27.3528 0.809154C27.3528 0.809154 25.7646 0.578204 26.7464 0.271139L26.7456 0.270704Z" fill="#3E3E44"/>
<path d="M11.293 12.5947H158.708C160.416 12.5947 161.886 12.6765 163.157 13.0996C164.399 13.5129 165.474 14.2606 166.375 15.6523C167.289 17.0656 168.038 19.1666 168.554 22.3027C169.069 25.4342 169.346 29.5562 169.346 34.9805C169.346 40.4422 169.064 44.5922 168.543 47.7441C168.021 50.9008 167.265 53.0151 166.345 54.4375C165.439 55.8386 164.36 56.5892 163.122 57.0039C161.855 57.4283 160.396 57.5107 158.708 57.5107H11.293C9.60517 57.5107 8.14534 57.4293 6.87793 57.0049C5.63971 56.5902 4.56147 55.8386 3.65527 54.4375C2.73543 53.0152 1.97913 50.9006 1.45703 47.7441C0.935718 44.5922 0.654297 40.4422 0.654297 34.9805C0.654306 29.5181 0.929044 25.377 1.44238 22.2383C1.95655 19.0945 2.70318 16.9995 3.61523 15.5967C4.51274 14.2163 5.5853 13.4827 6.82812 13.0801C8.10197 12.6674 9.57554 12.5947 11.293 12.5947Z" fill="#000002" stroke="#393C43" stroke-width="1.30823" stroke-miterlimit="10"/>
<path d="M127.798 7.65449V9.62257C127.798 9.95557 126.456 10.2257 124.802 10.2257C123.148 10.2257 121.806 9.95557 121.806 9.62257V7.65449C121.806 7.32149 123.148 7.05176 124.802 7.05176C126.456 7.05176 127.798 7.32192 127.798 7.65449Z" fill="#26262B"/>
<path d="M124.802 8.25808C126.457 8.25808 127.798 7.98804 127.798 7.65492C127.798 7.3218 126.457 7.05176 124.802 7.05176C123.147 7.05176 121.806 7.3218 121.806 7.65492C121.806 7.98804 123.147 8.25808 124.802 8.25808Z" fill="#2F2F35"/>
<path d="M155.194 3.12604C155.194 4.79979 149.29 6.48312 142.086 6.48312C134.881 6.48312 128.986 4.85414 128.986 3.18039C128.986 2.82098 129.979 1.40539 130.743 1.23642C133.027 0.357733 137.345 0.421942 142.086 0.421942C147.278 0.421942 151.941 0.644607 154.059 1.60863C154.105 1.56462 155.194 2.87802 155.194 3.12604Z" fill="#2F2F35"/>
<path d="M154.246 1.91458C154.246 2.15537 153.964 2.38588 153.448 2.59789C151.701 3.31791 147.272 3.82915 142.086 3.82915C136.899 3.82915 132.471 3.31791 130.724 2.59789C130.208 2.38588 129.926 2.15537 129.926 1.91458C129.926 0.955821 134.404 0.161213 140.248 0.0214374C140.34 0.0193819 140.434 0.017326 140.526 0.0155641C140.632 0.0135086 140.737 0.0117466 140.843 0.00998476C140.93 0.00851653 141.017 0.0073418 141.106 0.00616722C141.19 0.00499263 141.274 0.0041109 141.36 0.00352361C141.431 0.00264267 141.504 0.00205545 141.576 0.00176181C141.614 0.00146816 141.653 0.00117573 141.692 0.00117573C141.72 0.000882086 141.749 0.000881799 141.777 0.000881799C141.879 0.000294507 141.983 0 142.086 0C142.189 0 142.293 0.000294507 142.395 0.000881799C142.423 0.000881799 142.452 0.000882086 142.48 0.00117573C142.519 0.00117573 142.557 0.00146816 142.596 0.00176181C142.668 0.00205545 142.741 0.00264267 142.812 0.00352361C142.898 0.0041109 142.982 0.00499263 143.066 0.00616722C143.154 0.0073418 143.242 0.00851653 143.329 0.00998476C143.435 0.0117466 143.54 0.0135086 143.645 0.0155641C143.738 0.017326 143.832 0.0193819 143.924 0.0214374C149.768 0.161213 154.246 0.955821 154.246 1.91458Z" fill="#3E3E44"/>
<path d="M155.19 3.0752V8.89834C155.19 9.19668 154.886 9.48211 154.33 9.74492C152.447 10.6367 147.674 11.2698 142.085 11.2698C136.495 11.2698 131.722 10.6367 129.839 9.74492C129.283 9.48211 128.979 9.19668 128.979 8.89834V3.0752C128.979 3.37354 129.283 3.65897 129.839 3.92178C129.953 3.9761 130.079 4.02925 130.215 4.08152C132.305 4.88787 136.835 5.44668 142.085 5.44668C147.334 5.44668 151.864 4.88787 153.954 4.08152C154.091 4.02925 154.216 3.9761 154.33 3.92178C154.886 3.65897 155.19 3.37354 155.19 3.0752Z" fill="#333439"/>
<rect x="51.4463" y="7.45801" width="67.7225" height="3.40908" rx="0.436076" fill="#1B1C1F"/>
<path d="M125.357 3.93568V6.21334C125.357 6.45506 125.301 6.68638 125.188 6.90384C125.08 7.11263 124.921 7.29717 124.722 7.45311C124.272 7.80399 123.615 8.00759 122.867 8.00759H47.7455C46.998 8.00759 46.3417 7.80399 45.8909 7.45311C45.6918 7.29717 45.5333 7.11263 45.4245 6.90384C45.3121 6.68638 45.2559 6.45506 45.2559 6.21334V4.61612C45.2559 4.11276 45.5637 3.44686 46.2007 3.26172C46.7962 3.71114 45.853 3.69981 46.6779 4.00824C47.1727 4.10895 47.3851 4.10895 47.7455 4.10895H122.867C123.228 4.10895 123.583 4.05091 123.888 3.93568C124.713 3.62726 123.97 3.54805 124.42 3.26606L124.687 3.36491C125.101 3.51723 125.357 3.83753 125.357 3.93568Z" fill="#333439"/>
<path d="M123.889 4.04486C123.584 4.08745 123.229 4.1089 122.869 4.1089H47.7469C47.3865 4.1089 47.0317 4.08745 46.7266 4.04486C45.9016 3.93086 45.438 3.66444 46.1975 3.25808C46.1993 3.25744 46.2003 3.25681 46.2012 3.25617L56.521 1.34385C59.2067 0.875191 59.2516 0.798828 60.9814 0.798828L110.876 0.798836C112.143 0.798836 112.865 0.984532 114.288 1.29146L124.415 3.25617C124.415 3.25617 124.417 3.25744 124.418 3.25808C125.178 3.66444 124.714 3.93086 123.889 4.04486Z" fill="#3E3E44"/>
<g clip-path="url(#clip1_23709_294080)">
<g clip-path="url(#clip2_23709_294080)">
<g opacity="0.4">
<g opacity="0.45" filter="url(#filter0_i_23709_294080)">
<circle cx="84" cy="35" r="57" fill="#234E94" style="mix-blend-mode:screen"/>
</g>
<g opacity="0.6" filter="url(#filter1_i_23709_294080)">
<circle cx="84" cy="35" r="30" fill="url(#paint0_radial_23709_294080)" style="mix-blend-mode:screen"/>
</g>
</g>
<path fill-rule="evenodd" clip-rule="evenodd" d="M83.6173 24.0761C83.991 23.9214 84.4211 24.0069 84.7071 24.2929L89.7071 29.2929C90.0976 29.6834 90.0976 30.3166 89.7071 30.7071L85.4142 35L89.7071 39.2929C90.0976 39.6834 90.0976 40.3166 89.7071 40.7071L84.7071 45.7071C84.4211 45.9931 83.991 46.0787 83.6173 45.9239C83.2436 45.7691 83 45.4045 83 45V37.4142L79.7071 40.7071C79.3166 41.0977 78.6834 41.0977 78.2929 40.7071C77.9024 40.3166 77.9024 39.6834 78.2929 39.2929L82.5858 35L78.2929 30.7071C77.9024 30.3166 77.9024 29.6834 78.2929 29.2929C78.6834 28.9024 79.3166 28.9024 79.7071 29.2929L83 32.5858V25C83 24.5956 83.2436 24.2309 83.6173 24.0761ZM85 37.4142L87.5858 40L85 42.5858V37.4142ZM85 32.5858V27.4142L87.5858 30L85 32.5858Z" fill="#2B7FFF"/>
</g>
</g>
</g>
<defs>
<filter id="filter0_i_23709_294080" x="27" y="-22" width="114" height="114" filterUnits="userSpaceOnUse" color-interpolation-filters="sRGB">
<feFlood flood-opacity="0" result="BackgroundImageFix"/>
<feBlend mode="normal" in="SourceGraphic" in2="BackgroundImageFix" result="shape"/>
<feColorMatrix in="SourceAlpha" type="matrix" values="0 0 0 0 0 0 0 0 0 0 0 0 0 0 0 0 0 0 127 0" result="hardAlpha"/>
<feOffset/>
<feGaussianBlur stdDeviation="5.68667"/>
<feComposite in2="hardAlpha" operator="arithmetic" k2="-1" k3="1"/>
<feColorMatrix type="matrix" values="0 0 0 0 0.491173 0 0 0 0 0.601419 0 0 0 0 1 0 0 0 1 0"/>
<feBlend mode="normal" in2="shape" result="effect1_innerShadow_23709_294080"/>
</filter>
<filter id="filter1_i_23709_294080" x="54" y="5" width="60" height="60" filterUnits="userSpaceOnUse" color-interpolation-filters="sRGB">
<feFlood flood-opacity="0" result="BackgroundImageFix"/>
<feBlend mode="normal" in="SourceGraphic" in2="BackgroundImageFix" result="shape"/>
<feColorMatrix in="SourceAlpha" type="matrix" values="0 0 0 0 0 0 0 0 0 0 0 0 0 0 0 0 0 0 127 0" result="hardAlpha"/>
<feOffset/>
<feGaussianBlur stdDeviation="3.23041"/>
<feComposite in2="hardAlpha" operator="arithmetic" k2="-1" k3="1"/>
<feColorMatrix type="matrix" values="0 0 0 0 0.545223 0 0 0 0 0.643676 0 0 0 0 0.999624 0 0 0 1 0"/>
<feBlend mode="normal" in2="shape" result="effect1_innerShadow_23709_294080"/>
</filter>
<radialGradient id="paint0_radial_23709_294080" cx="0" cy="0" r="1" gradientUnits="userSpaceOnUse" gradientTransform="translate(84 35) rotate(90) scale(48.5)">
<stop stop-color="#112C57"/>
<stop offset="1" stop-color="#255EBD"/>
</radialGradient>
<clipPath id="clip0_23709_294080">
<rect width="170" height="58" fill="white"/>
</clipPath>
<clipPath id="clip1_23709_294080">
<rect width="154" height="44" fill="white" transform="translate(7 13)"/>
</clipPath>
<clipPath id="clip2_23709_294080">
<rect width="154" height="84" fill="white" transform="translate(7 -7)"/>
</clipPath>
</defs>
</svg>
